<?xml version="1.0" standalone="no"?>
<!DOCTYPE svg PUBLIC "-//W3C//DTD SVG 20010904//EN"
 "http://www.w3.org/TR/2001/REC-SVG-20010904/DTD/svg10.dtd">
<svg version="1.0" xmlns="http://www.w3.org/2000/svg"
 width="460.000000pt" height="460.000000pt" viewBox="0 0 460.000000 460.000000"
 preserveAspectRatio="xMidYMid meet">
<metadata>
Created by potrace 1.15, written by Peter Selinger 2001-2017
</metadata>
<g transform="translate(0.000000,460.000000) scale(0.100000,-0.100000)"
fill="#000000" stroke="none">
<path d="M1960 4582 c0 -10 -5 -23 -12 -30 -17 -17 -2 -15 26 3 26 17 38 9 50
-32 8 -27 50 -32 60 -8 3 8 16 15 29 15 26 0 77 21 77 32 0 12 83 -3 105 -18
11 -8 33 -15 50 -15 25 -1 26 -3 7 -6 -16 -3 -22 -9 -18 -20 3 -8 6 -23 6 -33
0 -13 5 -17 20 -13 22 6 27 29 8 36 -9 4 -8 6 3 6 8 1 19 -3 25 -8 5 -5 23
-12 40 -15 29 -7 32 -5 38 25 3 18 2 37 -4 43 -5 5 -10 20 -10 33 0 22 -4 23
-65 23 -37 0 -65 -4 -65 -10 0 -5 7 -10 15 -10 8 0 15 -5 15 -11 0 -6 -6 -9
-12 -6 -7 2 -19 -3 -25 -12 -11 -13 -12 -11 -7 15 l6 32 -181 1 c-170 2 -181
1 -181 -17z"/>
<path d="M1505 4565 c-33 -7 -51 -13 -40 -14 11 -1 27 -6 35 -12 11 -7 4 -8
-25 -4 -25 4 -35 3 -27 -2 9 -7 6 -13 -12 -22 -13 -7 -30 -11 -38 -9 -7 3 -22
1 -32 -5 -19 -9 -19 -10 -1 -23 17 -12 17 -14 2 -14 -9 0 -17 -4 -17 -10 0 -5
-8 -7 -17 -3 -10 3 -15 3 -11 -2 10 -10 -21 -34 -44 -35 -10 0 -18 -7 -18 -16
0 -14 -1 -14 -16 0 -17 18 -9 40 12 32 8 -3 14 0 14 7 0 14 52 57 69 57 5 0
11 7 15 15 5 13 2 14 -16 4 -70 -37 -228 -157 -170 -129 15 7 22 7 22 0 0 -5
-4 -10 -10 -10 -5 0 -10 -7 -10 -15 0 -9 -6 -15 -14 -13 -16 3 -66 -64 -66
-89 0 -14 4 -12 24 6 65 61 287 67 389 10 14 -8 24 -6 38 7 14 13 29 15 63 11
51 -7 76 8 76 48 0 13 5 27 10 30 15 9 12 78 -6 113 -11 23 -23 32 -42 33 -15
1 -20 3 -11 6 13 3 15 10 10 31 -6 22 -13 27 -42 29 -19 1 -61 -5 -94 -12z"/>
<path d="M2135 4370 c-3 -5 -3 -14 0 -20 3 -5 -1 -10 -9 -10 -9 0 -16 -7 -16
-15 0 -8 -5 -15 -10 -15 -15 0 -70 -42 -70 -53 0 -5 12 -21 28 -37 41 -41 52
-58 52 -75 0 -8 -6 -15 -12 -15 -7 0 -4 -6 7 -12 44 -25 55 -46 59 -115 2 -37
8 -69 13 -70 7 -3 9 13 6 40 -3 27 -1 47 6 51 7 5 6 14 -4 30 -9 13 -13 31 -9
40 3 9 1 16 -5 16 -19 0 -34 41 -23 64 6 11 13 34 17 50 5 25 9 28 36 22 16
-3 43 -19 59 -36 29 -30 41 -37 39 -22 -1 4 -1 24 0 46 1 32 3 36 15 27 18
-15 32 4 17 23 -6 7 -7 16 -3 21 4 4 -2 3 -14 -3 -23 -12 -65 -5 -76 12 -4 6
-19 12 -33 13 -21 2 -25 -2 -25 -28 0 -36 -13 -38 -28 -4 -7 16 -8 25 -2 25 6
0 8 11 4 25 -5 20 -3 24 10 19 9 -3 16 -1 16 5 0 14 -37 15 -45 1z"/>
<path d="M1865 4272 c-91 -60 -122 -90 -178 -169 -30 -43 -67 -90 -81 -105
-14 -15 -26 -32 -26 -38 0 -5 -7 -10 -15 -10 -23 0 -47 58 -47 117 -1 41 -3
51 -10 39 -11 -20 -13 -100 -3 -116 4 -6 -1 -20 -11 -31 -13 -15 -15 -22 -6
-31 9 -9 12 -8 12 5 0 9 4 17 9 17 23 0 41 -14 41 -30 0 -11 10 -19 25 -22 14
-3 25 -2 25 2 0 17 40 51 51 44 9 -5 10 -2 6 9 -10 27 135 117 188 117 14 0
25 5 25 10 0 17 -81 0 -133 -28 -26 -14 -49 -23 -52 -21 -4 5 22 40 59 82 9 9
16 20 16 25 0 13 61 72 92 88 17 9 52 19 77 23 45 8 45 8 19 19 -14 6 -28 17
-30 24 -2 9 -18 3 -53 -20z"/>
<path d="M1085 4208 c-11 -6 -47 -29 -79 -50 -32 -22 -89 -53 -125 -70 -36
-16 -69 -35 -73 -41 -13 -20 -9 -95 5 -100 16 -5 -9 -37 -29 -37 -8 0 -14 -7
-14 -16 0 -8 -12 -30 -27 -49 -23 -28 -30 -32 -49 -23 -15 7 -28 7 -40 -1 -11
-6 -14 -11 -6 -11 9 0 11 -7 7 -19 -3 -11 -1 -22 5 -26 5 -3 10 -16 10 -27 0
-12 3 -18 7 -15 8 9 63 -52 63 -70 0 -7 5 -13 10 -13 12 0 50 -36 50 -47 0 -5
14 -24 30 -43 36 -43 37 -48 5 -60 -14 -5 -25 -14 -25 -19 0 -24 -60 17 -60
41 -1 18 -26 49 -33 41 -4 -3 -13 0 -21 6 -8 7 -21 9 -27 5 -8 -5 -9 -3 -4 6
6 10 4 12 -9 7 -14 -6 -16 -3 -10 15 6 20 5 21 -8 10 -9 -7 -18 -26 -22 -43
-6 -34 2 -81 13 -74 4 2 7 -6 7 -18 -1 -18 9 -25 57 -41 31 -10 57 -22 57 -27
0 -20 -71 -110 -139 -176 -64 -63 -89 -79 -195 -127 -66 -30 -120 -60 -119
-65 2 -6 -4 -11 -13 -11 -8 0 -12 -4 -9 -10 3 -5 -3 -10 -14 -10 -12 0 -21 -6
-21 -14 0 -7 -9 -16 -20 -19 -13 -3 -18 -10 -14 -21 3 -9 -1 -27 -10 -40 -13
-21 -14 -29 -2 -57 9 -21 15 -27 19 -18 3 8 5 3 5 -11 -1 -14 9 -46 21 -72 13
-27 20 -55 16 -67 -4 -12 0 -23 9 -28 8 -4 28 -26 44 -49 30 -41 79 -71 138
-84 30 -7 33 -6 38 25 4 17 17 42 31 55 35 33 34 53 -2 34 -53 -27 -67 -16
-30 24 l22 25 -68 -6 c-79 -6 -78 4 5 39 l53 22 -48 7 c-73 11 -59 43 16 36
11 -2 17 5 17 19 0 21 7 21 73 3 12 -3 17 2 17 16 0 20 2 21 34 7 33 -14 34
-13 46 12 l12 27 9 -23 9 -23 31 23 c22 16 33 19 36 11 3 -9 17 -6 48 9 49 24
68 19 41 -11 -17 -19 -16 -19 65 -14 92 7 100 -5 19 -27 -28 -8 -53 -17 -56
-21 -2 -4 17 -10 43 -14 54 -7 101 -29 86 -38 -6 -4 -33 -7 -59 -8 -63 -2 -69
-7 -47 -31 18 -20 17 -20 -32 -13 -43 6 -48 5 -34 -6 27 -23 61 -78 54 -89 -9
-14 -84 26 -119 63 -25 28 -29 29 -38 13 -7 -12 -6 -22 4 -34 7 -9 20 -25 28
-36 74 -94 120 -124 205 -133 63 -7 108 7 176 54 28 19 49 29 47 21 -7 -19
-78 -66 -118 -77 -73 -21 -146 -23 -189 -5 -41 16 -124 98 -144 142 -14 31
-19 28 -40 -21 -15 -34 -20 -39 -27 -26 -5 9 -10 32 -11 50 -2 19 -4 37 -6 41
-2 3 -28 -19 -57 -50 -34 -36 -51 -61 -46 -66 6 -6 32 -9 60 -7 56 3 110 -6
110 -19 0 -4 -21 -3 -47 2 -34 8 -62 7 -102 -2 -73 -17 -150 -15 -198 5 -41
17 -93 62 -93 80 0 6 -15 37 -34 68 -19 30 -32 58 -30 60 2 2 -5 12 -16 22
-11 10 -20 23 -20 30 0 7 -9 22 -20 35 -11 13 -20 20 -20 15 0 -4 29 -67 65
-140 36 -72 65 -138 65 -146 0 -15 67 -50 133 -69 29 -9 63 -9 144 1 84 10
112 10 140 0 32 -12 36 -11 49 8 13 17 44 30 44 17 0 -15 -24 -66 -31 -66 -20
0 -7 -30 15 -36 14 -3 27 -12 30 -20 3 -8 17 -14 31 -14 14 0 25 -4 25 -10 0
-18 -74 -11 -108 10 -39 24 -49 25 -32 5 20 -24 101 -65 129 -65 15 0 34 9 44
20 9 11 29 20 45 20 15 0 44 9 65 20 20 11 39 20 42 20 13 0 2 -31 -24 -68
-36 -49 -91 -156 -91 -176 0 -20 41 -24 295 -31 227 -6 333 -17 377 -40 30
-14 59 -9 118 22 14 7 43 13 66 13 39 0 42 2 68 51 14 28 29 76 32 107 5 41
14 65 31 83 17 18 21 28 12 31 -20 7 -2 56 24 63 12 4 34 18 48 31 18 18 35
24 59 22 19 -2 35 2 37 10 3 7 -4 12 -17 12 -12 0 -18 5 -15 10 7 11 45 13 69
4 13 -5 14 -9 5 -21 -22 -26 4 -34 44 -13 59 32 141 27 197 -10 25 -16 49 -30
53 -30 5 0 29 -14 54 -31 78 -54 228 -119 274 -119 l42 0 -6 63 c-3 34 -16
100 -27 145 -21 83 -20 172 1 172 45 0 103 -184 96 -300 -3 -41 -3 -65 0 -52
6 30 31 28 38 -3 3 -14 7 -36 10 -49 8 -37 75 -102 115 -110 74 -15 300 -111
313 -133 4 -7 15 -13 22 -13 17 0 20 -35 5 -45 -6 -3 -10 -24 -10 -46 0 -22
-5 -39 -11 -39 -8 0 -10 12 -6 35 7 41 4 42 -24 14 -26 -26 -39 -16 -14 11 10
11 15 23 12 27 -4 3 -7 1 -7 -5 0 -7 -15 -12 -35 -12 -22 0 -38 -6 -41 -15 -4
-8 -10 -12 -15 -9 -5 3 -9 0 -9 -5 0 -6 -15 -11 -34 -11 -20 0 -36 -6 -39 -14
-5 -11 14 -16 91 -21 53 -3 108 -11 121 -18 26 -13 80 -10 98 5 7 5 22 7 34 3
15 -5 20 -3 17 6 -3 8 -11 14 -19 15 -27 1 -88 25 -100 40 -11 14 -8 15 27 9
21 -4 43 -11 49 -16 13 -12 55 -11 55 1 0 6 -7 10 -15 10 -9 0 -18 6 -21 14
-4 10 -17 12 -46 8 -28 -3 -39 -2 -35 6 4 5 16 8 27 5 11 -3 20 0 20 6 0 6 -7
11 -15 11 -8 0 -20 10 -26 23 -7 12 -18 26 -26 30 -7 5 -29 39 -47 76 -20 38
-47 76 -63 86 -30 20 -88 67 -156 127 -35 31 -39 39 -27 48 8 5 30 10 49 10
24 0 32 4 28 14 -3 7 0 19 6 25 19 19 -1 24 -27 7 -25 -16 -116 -23 -130 -9
-3 4 8 20 26 35 26 22 44 28 83 30 43 1 45 2 13 5 -39 4 -52 26 -23 37 8 3 15
11 15 18 0 6 -13 0 -28 -15 -16 -16 -40 -27 -58 -28 -16 -1 -22 -3 -11 -6 9
-2 17 -6 17 -9 0 -11 -42 -44 -50 -39 -15 9 -12 55 3 55 6 1 2 6 -10 13 -40
22 7 56 79 58 24 0 36 3 28 6 -8 2 -21 7 -29 9 -11 3 -11 7 -1 19 16 19 0 19
-26 0 -10 -8 -26 -15 -35 -15 -9 0 -19 -9 -22 -21 -7 -26 -32 -20 -32 7 0 10
-4 22 -10 26 -18 13 18 62 50 69 17 4 22 7 11 8 -13 1 -17 6 -13 22 5 20 5 20
-13 4 -16 -14 -24 -15 -54 -5 l-36 12 21 29 c15 21 29 29 52 29 30 1 31 2 13
15 -16 12 -17 15 -4 20 10 4 14 14 11 26 -5 17 0 19 50 19 54 0 56 -1 67 -35
14 -43 46 -50 36 -7 -4 15 -8 34 -9 42 -1 9 22 22 70 39 82 29 79 41 -12 41
-42 0 -56 3 -45 10 8 5 27 10 41 10 16 0 30 8 38 23 16 30 60 47 141 53 82 7
111 -9 92 -50 -11 -25 -10 -26 11 -21 12 2 51 9 86 15 64 11 91 24 145 68 25
20 39 23 100 22 73 -2 79 -1 155 31 43 19 44 20 26 39 -49 55 -191 63 -443 25
-267 -39 -302 -44 -388 -51 l-81 -6 0 133 c0 146 -14 263 -39 331 -8 24 -21
68 -28 98 -8 38 -17 56 -29 58 -9 2 -17 8 -17 13 0 5 -13 0 -29 -12 -23 -17
-32 -19 -50 -10 -12 7 -36 9 -57 5 -30 -5 -36 -3 -41 14 -2 11 -13 22 -24 25
-21 6 -24 28 -8 60 10 18 6 17 -19 -7 l-30 -28 34 -81 c18 -45 37 -97 40 -117
l7 -35 -23 29 c-23 28 -50 31 -102 11 -15 -6 -14 2 5 77 12 46 26 86 31 90 5
3 -14 16 -41 28 -47 20 -52 25 -68 76 -16 52 -18 53 -33 35 -10 -11 -27 -22
-39 -26 -19 -5 -23 -2 -24 17 -2 30 0 58 7 86 4 18 0 22 -21 22 -15 0 -24 -4
-20 -10 3 -5 -1 -10 -10 -10 -9 0 -13 5 -10 10 3 6 -1 10 -9 10 -9 0 -16 8
-16 18 -1 13 -4 11 -15 -8 -8 -14 -15 -19 -16 -12 -1 6 -2 17 -3 22 0 6 -6 14
-12 18 -21 13 -58 97 -55 125 2 25 0 28 -21 25 -28 -4 -40 -48 -13 -48 11 0
15 -5 12 -14 -3 -8 1 -17 10 -21 12 -4 14 -8 5 -17 -16 -16 -52 -20 -52 -6 0
6 -3 9 -6 5 -3 -3 -3 -11 2 -18 4 -7 9 -25 11 -41 1 -15 5 -43 7 -60 3 -18 5
-39 5 -45 1 -18 21 -16 21 1 0 7 7 20 17 27 15 13 16 9 9 -44 -6 -56 -22 -87
-45 -87 -6 0 -11 14 -11 30 0 23 -4 30 -20 30 -11 0 -20 6 -20 13 0 8 -13 13
-35 13 -23 0 -34 -4 -31 -12 6 -16 -43 -3 -109 27 -42 19 -67 23 -152 24 -57
0 -103 4 -103 8 0 4 -9 3 -19 -3 -11 -5 -28 -10 -38 -10 -10 0 -24 -9 -31 -21
-9 -14 -20 -19 -34 -16 -14 4 -22 0 -25 -14 -3 -10 -10 -16 -15 -13 -6 4 -14
0 -19 -7 -7 -12 -9 -12 -9 0 0 11 -4 9 -15 -5 -8 -10 -15 -14 -15 -7 0 6 8 19
18 29 16 17 16 17 -5 12 -13 -3 -25 -3 -28 2 -3 4 -23 8 -45 8 -23 1 -38 -3
-35 -9 14 -21 -38 -7 -58 17 l-23 26 -12 -26 c-9 -21 -9 -27 1 -25 26 3 37 -2
37 -16 0 -11 -12 -15 -50 -15 -51 0 -57 -4 -41 -29 8 -12 12 -12 26 2 11 12
22 14 33 8 24 -12 42 -3 42 21 0 17 5 20 30 16 17 -3 33 -1 36 4 3 5 12 4 20
-3 10 -8 14 -8 14 -1 0 6 7 9 16 5 19 -7 15 -48 -5 -48 -8 0 -16 -5 -18 -12
-3 -7 4 -11 16 -10 12 1 21 6 21 12 0 6 9 11 20 11 11 0 20 -4 20 -9 0 -5 6
-4 13 2 8 6 17 8 21 4 4 -4 11 -1 17 7 8 13 10 13 18 0 14 -21 2 -33 -26 -27
-17 3 -21 1 -14 -6 15 -15 14 -27 -3 -21 -8 3 -17 0 -22 -7 -4 -7 -3 -10 2 -6
6 3 16 2 24 -3 9 -5 19 -5 27 2 10 8 13 6 13 -6 0 -9 -7 -16 -16 -16 -9 0 -14
-6 -11 -12 19 -48 19 -48 -2 -48 -12 0 -21 4 -21 10 0 5 -8 6 -17 3 -12 -5
-15 -2 -10 10 3 9 2 17 -3 17 -6 0 -10 -5 -10 -11 0 -5 -4 -8 -9 -5 -5 3 -12
-1 -15 -10 -4 -12 -2 -15 9 -10 8 3 15 1 15 -4 0 -6 -5 -10 -10 -10 -6 0 -8
-11 -4 -25 5 -19 2 -25 -11 -25 -13 0 -15 3 -7 13 8 9 5 19 -8 37 -18 23 -19
24 -38 7 -31 -28 -59 -18 -30 11 7 7 8 12 4 12 -5 0 -3 7 4 15 10 12 10 15 -2
15 -8 0 -20 -6 -27 -12 -10 -11 -11 -10 -6 5 4 10 2 17 -4 17 -6 0 -11 -6 -11
-12 0 -14 -25 25 -36 55 -7 18 -46 21 -44 3 2 -13 -22 -26 -48 -26 -14 0 -21
-4 -16 -11 3 -6 19 -9 35 -5 34 7 39 -11 7 -24 -21 -8 -19 -9 12 -10 36 -2 34
-4 -12 -14 -31 -7 -36 -21 -12 -30 8 -3 12 -2 9 4 -3 6 0 10 9 10 30 0 22 -26
-21 -67 -49 -48 -48 -57 3 -18 18 14 42 25 52 25 11 0 22 6 25 13 3 6 2 -7 0
-30 -5 -35 -3 -43 11 -43 9 0 16 -5 16 -11 0 -12 -28 -104 -40 -134 -9 -20
-31 -135 -33 -168 -1 -17 -2 -17 -14 -1 -10 14 -14 14 -25 3 -7 -8 -13 -21
-13 -29 0 -25 -29 -22 -64 7 l-33 28 15 38 c17 39 5 62 -16 32 -11 -14 -15
-11 -30 24 -18 40 -18 41 8 95 14 31 30 58 36 61 12 8 12 25 0 25 -5 0 -12 -9
-16 -19 -3 -10 -13 -22 -23 -25 -9 -3 -24 -9 -32 -12 -9 -3 -11 -2 -5 3 16 12
57 73 50 73 -3 0 -19 -13 -35 -30 -16 -16 -32 -30 -35 -30 -17 0 -65 46 -65
63 0 13 -5 17 -16 13 -13 -5 -15 -1 -10 19 4 14 2 25 -3 25 -5 0 -14 21 -19
47 -9 40 -8 49 6 60 16 12 15 13 -5 19 -19 5 -23 13 -22 43 1 77 16 132 44
161 27 29 28 29 67 13 21 -8 41 -14 43 -11 2 2 -11 21 -30 43 -40 44 -44 70
-14 101 20 21 20 23 4 48 -20 31 -3 36 22 7 16 -20 17 -20 40 2 28 27 32 77 6
77 -10 0 -27 -6 -38 -12z m883 -320 c29 -11 65 -30 81 -43 15 -14 32 -21 36
-17 5 4 5 1 1 -6 -4 -7 -3 -19 3 -26 6 -7 9 -27 7 -44 -2 -18 0 -32 5 -32 12
0 22 -41 12 -51 -6 -6 -32 -6 -69 0 -65 10 -95 -1 -59 -22 11 -6 22 -12 25
-12 25 -4 70 -39 70 -56 0 -11 -4 -18 -9 -14 -5 3 -16 -2 -25 -11 -20 -20 -76
-36 -90 -26 -6 5 -31 14 -56 21 -25 7 -64 24 -87 37 -35 20 -47 23 -63 14 -24
-13 -17 -32 7 -23 11 4 14 3 9 -5 -4 -7 -2 -12 5 -12 7 0 20 -7 29 -15 10 -9
26 -17 36 -19 37 -8 74 -26 74 -36 0 -5 5 -10 11 -10 5 0 7 6 3 13 -5 9 -3 9
7 -1 12 -11 12 -14 -1 -22 -8 -5 -12 -10 -7 -10 4 0 1 -13 -7 -29 -9 -16 -12
-32 -8 -36 4 -5 -1 -5 -12 -1 -18 6 -18 5 -2 -18 21 -33 20 -54 -4 -110 -30
-67 -72 -84 -110 -44 -12 14 -18 30 -15 42 5 19 5 19 -5 4 -18 -29 -49 -21
-91 23 -22 23 -42 39 -46 36 -3 -4 2 -24 10 -46 12 -29 13 -42 5 -47 -6 -4 -8
-3 -4 4 3 6 -3 12 -16 14 -17 2 -25 13 -31 41 -7 30 -13 38 -27 34 -22 -6 -27
11 -36 106 -6 63 -6 67 13 67 13 0 23 8 26 22 5 18 8 19 21 9 9 -7 26 -33 38
-57 12 -24 25 -44 28 -44 4 0 12 -12 18 -26 17 -36 33 -21 20 19 -6 17 -15 37
-19 43 -5 6 -6 14 -2 17 3 4 2 7 -4 7 -13 0 -43 71 -43 100 0 16 7 20 35 20
41 0 46 19 15 50 -11 11 -20 25 -20 30 0 16 18 11 29 -7 9 -16 11 -15 12 7 1
14 2 31 2 38 -1 17 21 15 95 -7 34 -11 62 -18 62 -16 0 3 -21 17 -47 32 l-48
28 48 3 c47 3 69 28 25 28 -139 1 -148 3 -148 29 0 14 4 25 8 25 5 0 14 11 22
24 25 47 150 54 258 14z m572 -255 c0 -25 5 -43 11 -43 7 0 9 -13 5 -37 -16
-97 -16 -117 -5 -150 10 -32 13 -35 24 -20 7 10 19 15 29 11 9 -3 16 -1 16 5
0 6 6 8 14 5 7 -3 16 2 19 10 11 28 39 7 32 -23 -8 -32 -31 -51 -64 -51 -23 0
-24 -1 -9 -16 34 -34 88 30 88 106 0 29 -4 40 -15 40 -8 0 -15 7 -15 15 0 8 5
15 11 15 6 0 9 9 6 20 -3 11 -2 20 2 20 12 0 38 -24 44 -40 4 -11 6 -10 8 5 1
11 5 -5 8 -35 l6 -55 18 30 18 30 -4 -80 c-2 -49 -10 -93 -21 -112 -17 -34 -8
-45 15 -17 11 14 13 14 21 0 5 -8 15 -13 23 -10 18 7 30 -20 19 -43 -4 -10 -8
-20 -9 -23 -24 -69 -76 -148 -188 -285 -32 -40 -55 -87 -50 -102 3 -7 -2 -13
-11 -13 -10 0 -16 -12 -18 -37 -3 -35 -7 -40 -60 -66 l-57 -28 -43 22 c-113
59 -177 88 -201 94 -17 5 -27 14 -27 26 0 13 -13 21 -47 31 -57 16 -69 38 -21
38 l33 0 -34 17 c-19 10 -52 40 -74 69 -37 47 -41 50 -56 35 -12 -12 -13 -17
-5 -21 21 -8 -10 -40 -42 -45 -16 -2 -42 -7 -58 -10 -26 -5 -28 -4 -23 17 4
13 2 30 -3 38 -8 12 -10 12 -11 -5 -1 -11 -2 -26 -2 -33 1 -7 -2 -11 -5 -8 -3
3 -11 1 -19 -6 -19 -16 -27 -4 -13 22 7 12 12 38 12 56 0 37 21 47 33 17 6
-17 8 -17 21 2 13 17 16 18 24 5 8 -13 10 -12 10 2 0 10 13 24 28 32 28 14 29
17 20 63 -5 26 -13 68 -17 93 -4 25 -12 54 -16 64 -6 14 -5 17 3 12 7 -4 12
-2 12 3 0 6 6 11 13 11 15 1 87 115 126 200 l28 63 6 -39 c4 -22 7 -60 7 -86
0 -47 -1 -48 -47 -72 -74 -37 -105 -75 -107 -131 -1 -27 3 -50 11 -57 10 -8
13 -5 13 13 l0 24 20 -25 c14 -18 22 -22 30 -14 6 6 30 9 55 7 35 -3 46 -1 54
15 6 11 8 22 5 25 -3 3 3 3 15 0 28 -7 28 -50 -1 -74 -11 -11 -35 -19 -52 -19
-24 0 -27 -3 -16 -10 25 -16 48 -11 75 16 33 33 44 62 38 97 -4 18 -12 27 -24
27 -11 0 -19 7 -19 15 0 8 5 15 11 15 8 0 7 5 -1 15 -18 21 -5 30 24 17 20 -9
25 -8 31 6 7 19 -35 62 -61 62 -18 0 -18 21 1 66 8 19 17 57 21 85 4 27 10 49
14 49 4 0 11 -25 15 -57 9 -70 24 -53 26 27 1 98 14 104 33 15 9 -44 21 -90
26 -103 6 -13 10 -46 10 -75 l0 -52 23 25 c13 14 28 34 35 45 11 19 11 19 12
-2 0 -33 16 -28 30 10 7 17 20 52 30 77 10 25 23 76 30 113 7 37 19 75 28 84
14 14 17 14 29 -3 7 -10 13 -37 13 -61z m-1092 -109 c1 -1 -2 -13 -7 -28 -9
-21 -8 -26 4 -26 12 0 15 -14 15 -61 0 -37 4 -58 10 -54 11 7 13 -15 4 -40 -5
-13 -8 -14 -15 -3 -6 9 -9 6 -9 -10 0 -16 5 -22 16 -20 12 2 17 -5 18 -24 1
-16 -2 -28 -6 -28 -4 0 -9 10 -9 23 -1 17 -2 18 -6 4 -2 -9 -9 -15 -14 -12 -5
4 -9 -4 -9 -16 0 -12 -7 -30 -16 -40 -14 -15 -18 -15 -45 -2 -20 10 -29 22
-29 39 0 13 5 24 11 24 8 0 8 4 0 14 -9 11 -8 24 2 55 10 29 11 42 3 45 -8 3
-8 7 0 13 6 4 10 19 8 33 -1 14 7 51 18 83 18 50 23 56 37 45 9 -7 17 -13 19
-14z m-488 -336 c0 -27 2 -28 53 -28 70 -1 166 -22 201 -45 l28 -19 29 35 c16
19 29 37 29 40 0 10 40 18 40 8 0 -5 -4 -9 -9 -9 -13 0 -57 -59 -66 -87 -4
-15 -2 -23 5 -23 25 0 120 -65 120 -82 0 -25 -62 -48 -129 -47 -67 0 -108 22
-231 121 -46 37 -87 64 -91 60 -4 -4 -12 -24 -19 -44 -6 -21 -15 -38 -19 -38
-20 0 -51 35 -56 64 -4 18 -15 46 -25 61 -19 28 -19 28 13 74 17 25 35 49 41
53 17 12 86 -63 86 -94z m746 3 c11 9 14 9 14 -1 0 -8 -21 -33 -46 -57 -25
-24 -43 -49 -41 -56 2 -7 -36 -51 -85 -98 -75 -74 -86 -88 -73 -99 8 -7 15
-17 15 -22 0 -6 7 -25 16 -44 15 -31 16 -105 2 -211 -2 -17 -13 -16 -28 2 -7
8 -17 15 -22 15 -41 0 -66 94 -50 186 6 38 11 80 9 94 -2 19 4 26 24 30 32 6
129 84 157 126 l21 32 -41 5 c-31 4 -49 15 -75 43 -30 35 -41 54 -28 54 3 0
23 -18 45 -40 61 -61 110 -55 143 19 14 33 21 41 24 28 4 -14 8 -16 19 -6z
m503 -456 c74 -19 146 -56 196 -99 36 -31 38 -36 25 -50 -14 -14 -19 -13 -55
12 -22 15 -41 30 -43 35 -2 4 -9 7 -17 7 -7 0 -18 6 -24 14 -7 8 -28 17 -49
20 -20 4 -46 9 -57 11 -11 3 -14 2 -7 -1 9 -4 7 -13 -9 -32 -11 -15 -25 -27
-30 -27 -5 0 -14 -7 -20 -15 -7 -11 -9 -4 -7 25 3 33 7 40 28 45 17 4 21 8 12
14 -12 7 -17 56 -6 56 3 0 32 -7 63 -15z m-372 -165 c4 -15 9 -18 18 -10 8 7
21 7 36 1 23 -10 23 -10 -5 -10 -22 -1 -27 -4 -19 -12 14 -14 53 -2 53 17 0 8
9 14 20 14 11 0 20 -4 20 -10 0 -5 -8 -10 -17 -10 -12 0 -14 -3 -6 -11 8 -8
17 -8 33 1 30 16 38 4 19 -28 -46 -84 -189 -77 -189 9 0 16 5 29 11 29 6 0 8
9 4 20 -4 12 -2 20 5 20 7 0 14 -9 17 -20z m681 -42 c7 -15 21 -30 32 -33 11
-4 20 -13 20 -21 0 -8 8 -14 17 -14 10 0 39 -21 65 -47 26 -26 50 -44 53 -41
3 2 1 33 -3 67 -6 45 -5 64 3 71 10 8 15 -13 25 -86 6 -52 9 -98 7 -101 -10
-10 -74 32 -132 87 -33 31 -81 73 -107 94 -48 39 -54 60 -15 54 12 -2 28 -15
35 -30z"/>
<path d="M3006 4093 c-4 -12 -12 -20 -19 -17 -7 2 -18 -5 -24 -16 -11 -16 -9
-23 12 -46 28 -31 32 -49 10 -58 -8 -3 -15 -12 -15 -20 0 -7 -10 -16 -22 -19
-16 -5 -19 -9 -10 -19 6 -8 14 -34 18 -58 4 -25 17 -57 30 -72 12 -15 28 -44
34 -65 7 -21 16 -42 20 -48 5 -5 11 -28 15 -50 12 -64 24 -77 25 -25 0 46 -19
131 -37 165 -6 11 -19 39 -28 63 -11 24 -25 42 -34 42 -14 1 -13 2 2 11 9 5
17 21 17 34 0 28 34 36 44 10 6 -17 36 -21 36 -5 0 6 -4 10 -10 10 -5 0 -16
12 -24 28 -8 15 -15 21 -16 14 0 -7 -4 -11 -10 -7 -5 3 -1 20 11 41 10 19 17
39 14 45 -3 5 2 6 12 4 10 -3 8 0 -5 6 -12 7 -26 26 -30 43 -8 29 -9 29 -16 9z"/>
<path d="M3266 2306 c-3 -14 -2 -35 3 -48 4 -13 6 -29 4 -36 -3 -7 -2 -19 1
-28 5 -13 9 -13 28 -1 13 8 44 17 70 20 38 5 52 2 81 -17 31 -21 38 -22 55
-10 11 7 23 10 28 6 5 -4 6 -3 2 2 -4 4 -3 19 2 32 8 20 6 25 -13 29 -46 11
-168 23 -186 18 -10 -3 -22 0 -25 5 -4 6 3 8 16 5 17 -3 19 -2 9 5 -7 5 -10
15 -6 22 5 9 2 10 -13 6 -11 -4 -23 -2 -27 4 -11 17 -23 11 -29 -14z"/>
<path d="M3603 1935 c-23 -5 -44 -13 -48 -16 -9 -9 70 -44 135 -59 60 -14 116
-39 89 -40 -9 0 -38 7 -65 15 -44 14 -71 13 -259 -1 -115 -9 -214 -20 -220
-25 -5 -5 -37 -9 -71 -9 -48 0 -67 -5 -89 -22 -16 -12 -41 -29 -56 -38 -15 -8
-54 -35 -86 -60 -32 -25 -78 -58 -103 -74 -25 -16 -47 -32 -50 -35 -5 -8 -109
-86 -179 -136 -23 -16 -58 -42 -77 -57 -20 -15 -44 -30 -55 -33 -10 -4 -19
-11 -19 -16 0 -12 8 -12 23 1 7 5 66 46 132 90 66 44 167 113 225 153 101 69
120 78 183 81 15 0 27 4 27 9 0 11 -49 8 -73 -4 -37 -19 44 54 88 80 28 17 60
25 110 29 70 4 70 4 94 -29 l24 -32 -28 -23 c-24 -19 -27 -27 -21 -57 9 -46
31 -65 57 -49 26 16 69 14 101 -6 14 -9 51 -31 81 -49 31 -18 58 -37 62 -43
12 -19 25 -10 16 13 -8 22 -8 39 4 86 6 27 52 101 70 113 51 36 53 40 48 74
-4 23 -2 34 7 34 8 0 10 -8 6 -26 -6 -23 -4 -25 11 -19 59 25 72 28 89 21 17
-6 16 -8 -6 -21 -14 -8 -32 -17 -40 -21 -38 -18 -122 -100 -136 -132 -16 -40
-20 -97 -10 -158 6 -33 4 -43 -16 -60 -46 -42 -340 -191 -458 -232 -84 -29
-88 -30 -237 -25 -130 5 -152 8 -156 23 -2 9 -29 29 -60 44 l-56 29 -42 -22
c-50 -26 -118 -51 -139 -50 -10 0 -8 3 5 9 14 6 3 9 -40 10 -98 1 -119 0 -149
-8 l-28 -8 27 -12 c24 -11 27 -11 22 3 -5 12 1 15 28 15 20 0 44 -6 55 -12 17
-11 22 -10 30 2 9 13 12 13 21 -2 10 -19 55 -25 61 -9 2 5 15 7 30 4 16 -3 25
-10 21 -16 -4 -7 8 -8 35 -4 23 3 42 2 42 -3 0 -16 122 -29 283 -30 148 -1
173 2 214 20 25 11 52 20 59 20 7 0 50 18 96 40 46 23 103 48 128 57 25 8 47
18 50 22 3 3 34 21 70 40 36 19 73 41 83 49 13 12 20 13 29 4 8 -8 5 -16 -13
-31 -13 -11 -29 -20 -35 -21 -6 0 -17 -6 -23 -13 -6 -8 -30 -23 -53 -34 -24
-11 -111 -55 -195 -96 -90 -45 -163 -76 -180 -75 -72 2 -299 -6 -327 -12 -28
-6 -25 -7 24 -13 30 -4 88 -8 128 -8 75 -2 102 -13 57 -25 -37 -9 -228 2 -430
24 -173 19 -237 18 -371 -8 -33 -6 -84 -15 -114 -21 -61 -10 -240 -13 -322 -4
-37 4 -47 2 -33 -4 16 -8 16 -10 4 -10 -9 -1 -22 5 -28 13 -14 16 -98 34 -206
42 -72 5 -78 4 -61 -9 19 -14 19 -15 -10 -40 -37 -34 -52 -34 -60 0 -5 19 -2
30 11 40 22 15 22 15 -70 13 -95 -2 -119 -8 -104 -27 10 -11 8 -15 -9 -20 -29
-7 -20 -19 22 -27 39 -7 53 -21 58 -56 2 -19 10 -26 31 -28 25 -3 32 5 28 30
0 5 6 8 14 8 8 0 15 -3 15 -7 0 -14 604 -7 629 6 33 18 52 7 49 -29 -2 -24 3
-34 22 -44 46 -26 129 -56 152 -56 13 0 29 -5 36 -12 8 -8 49 -12 125 -11 92
1 127 6 191 27 43 14 83 23 87 20 14 -8 11 -30 -6 -44 -8 -7 -12 -16 -9 -21 3
-5 0 -9 -5 -9 -10 0 -41 -62 -41 -82 0 -25 26 3 30 33 3 19 11 33 18 32 7 -2
12 1 12 6 0 5 5 22 11 38 7 15 12 35 13 45 1 9 31 37 68 62 l66 45 -10 -35
c-5 -20 -32 -83 -59 -140 -27 -57 -49 -106 -49 -110 0 -3 -9 -17 -20 -31 -11
-14 -20 -21 -20 -14 0 6 -7 11 -15 11 -8 0 -15 -8 -15 -17 0 -15 2 -16 10 -3
16 25 12 -7 -5 -40 -9 -17 -15 -31 -14 -32 7 -12 -38 -96 -73 -138 -7 -8 -12
-17 -11 -21 1 -3 -8 -16 -21 -28 l-23 -22 -11 44 c-12 47 1 97 25 97 6 0 12 8
12 18 -1 23 22 81 44 115 14 22 15 27 3 27 -8 0 -18 -10 -21 -22 -4 -13 -24
-43 -44 -68 -20 -25 -50 -72 -66 -105 -49 -101 -114 -198 -166 -246 -27 -25
-51 -44 -54 -41 -3 3 -5 -4 -5 -15 0 -11 -10 -25 -22 -31 -22 -10 -22 -11 6
-11 29 -1 65 29 129 107 25 31 30 33 77 30 51 -3 51 -3 33 -23 -10 -11 -26
-33 -36 -48 -15 -23 -21 -26 -33 -16 -9 7 -14 8 -14 1 0 -6 6 -13 13 -15 18
-8 -12 -27 -43 -27 -17 0 -36 -14 -59 -41 l-34 -41 114 4 c109 4 118 6 199 44
112 53 120 64 79 99 -18 14 -41 38 -52 52 -20 24 -20 25 -1 15 10 -6 36 -29
57 -52 21 -23 43 -40 50 -37 28 11 148 108 225 182 l82 80 1 75 c4 262 2 396
-6 428 -4 16 -1 22 11 22 13 0 14 3 4 15 -17 20 -6 19 15 -1 9 -9 13 -24 10
-35 -4 -11 -2 -19 4 -19 6 0 11 7 11 16 0 29 25 8 31 -27 4 -19 12 -57 17 -85
8 -34 8 -112 1 -245 -13 -254 -9 -521 9 -527 9 -3 12 28 12 132 0 84 4 136 10
136 6 0 10 17 10 38 1 52 16 123 28 131 5 3 10 53 11 110 0 58 4 120 7 138 4
20 2 33 -4 33 -6 0 -12 10 -15 23 -2 12 -4 -12 -5 -53 -1 -41 -6 -91 -11 -110
-8 -31 -9 -28 -12 35 -1 39 -1 80 0 92 1 12 -5 50 -14 83 -19 72 -13 88 22 60
14 -11 40 -20 57 -20 27 0 35 -6 49 -35 21 -44 21 -55 2 -55 -18 0 -18 -1 -5
-35 6 -15 6 -24 1 -20 -12 7 -23 -28 -15 -49 4 -10 18 -16 36 -16 32 0 57 -23
58 -51 0 -25 32 -96 37 -82 2 6 -3 34 -11 62 -8 28 -13 51 -10 51 3 0 0 9 -6
19 -5 11 -7 26 -4 35 10 25 53 -1 51 -31 -1 -14 5 -30 14 -36 13 -8 23 -4 46
20 32 33 51 35 97 13 27 -13 30 -13 52 13 13 16 24 37 24 48 0 10 4 19 10 19
5 0 7 6 5 13 -3 6 -1 18 4 26 8 12 16 12 55 0 25 -7 46 -17 46 -22 0 -4 8 -7
17 -5 11 2 17 -4 17 -17 0 -27 -44 -165 -61 -190 -15 -22 -18 -95 -4 -95 5 0
18 11 29 25 11 14 27 25 35 25 9 0 19 5 22 10 9 15 25 12 25 -5 0 -9 -7 -18
-15 -21 -10 -4 -13 -14 -9 -28 3 -14 -1 -27 -10 -35 -9 -8 -16 -10 -16 -7 0 4
-7 1 -15 -8 -19 -19 -19 -24 2 -28 13 -2 9 -11 -20 -43 -20 -22 -37 -46 -37
-53 0 -7 -11 -30 -25 -52 -14 -22 -25 -48 -25 -58 0 -10 -4 -22 -9 -28 -4 -5
-13 -22 -19 -39 -5 -16 -13 -38 -17 -47 -7 -17 14 -18 359 -18 l366 0 6 27 c7
25 8 26 16 8 6 -15 7 -13 4 11 -4 22 0 33 16 43 18 11 19 10 12 -11 -7 -24 -8
-31 -6 -63 2 -18 3 -18 18 3 8 12 22 22 30 22 8 0 14 4 14 8 0 5 11 14 24 20
23 10 43 52 25 52 -5 0 -9 -6 -9 -12 -1 -31 -30 30 -30 62 0 31 3 36 21 35 13
-1 27 -13 35 -31 l13 -29 -2 35 c-2 27 -9 39 -34 55 -45 28 -45 67 1 97 25 16
37 35 50 75 23 75 21 101 -6 105 -13 2 -32 17 -43 35 -12 19 -29 32 -41 33
-22 0 -64 38 -64 59 0 16 -29 71 -46 89 -8 7 -12 18 -9 23 4 5 2 9 -3 9 -13 0
-22 -25 -22 -64 0 -19 -8 -44 -19 -57 -10 -13 -20 -29 -22 -35 -3 -7 -15 -8
-37 -2 -34 9 -35 28 -2 28 13 0 22 9 25 27 4 16 10 36 16 45 11 22 12 48 0 48
-11 0 -59 -37 -89 -68 -14 -15 -22 -32 -19 -43 4 -13 0 -19 -11 -19 -39 1 -45
15 -40 99 4 62 2 81 -8 77 -6 -2 -22 5 -34 16 -18 17 -21 28 -16 60 5 33 3 42
-20 63 -14 13 -35 27 -47 31 -11 3 -35 22 -54 40 -38 38 -53 43 -53 15 0 -10
-9 -21 -20 -24 -30 -8 -26 -59 6 -94 20 -22 24 -34 19 -58 -7 -37 -7 -64 -1
-91 5 -18 0 -23 -25 -28 -17 -3 -35 -3 -40 0 -15 9 1 25 19 20 13 -5 18 2 19
29 3 29 -2 37 -28 52 -23 14 -29 24 -26 41 4 21 1 22 -34 20 -47 -2 -54 4 -39
32 6 12 9 24 6 27 -2 3 9 19 26 35 27 27 29 32 15 40 -10 5 -17 21 -17 38 0
37 34 48 91 30 34 -12 42 -11 55 2 13 13 13 16 -2 29 -9 7 -34 14 -55 14 -42
0 -49 19 -8 21 43 2 49 4 49 14 0 6 -5 10 -12 10 -23 0 -66 51 -61 71 3 10 7
19 9 19 2 0 26 -14 55 -30 50 -30 95 -33 86 -7 -2 7 4 23 14 36 25 31 25 71 1
71 -18 0 -94 22 -137 40 -11 4 -41 15 -66 24 -63 23 -95 91 -46 98 18 2 22 9
21 38 -1 19 -4 50 -9 68 -10 41 3 41 44 0 28 -28 33 -30 57 -20 22 11 25 17
22 53 l-3 41 65 35 c93 50 120 72 120 94 0 23 -24 24 -60 4 -14 -8 -38 -14
-54 -15 -26 0 -28 2 -22 30 3 17 1 30 -4 30 -19 0 -25 2 -45 16 -11 8 -31 14
-45 14 -14 0 -41 10 -60 23 -48 32 -59 35 -107 22z m423 -1327 c24 -11 26 -15
21 -63 -3 -27 -13 -79 -22 -115 -9 -36 -18 -81 -20 -100 -2 -19 -4 -35 -5 -35
-1 0 -4 -25 -6 -55 -4 -41 -10 -60 -27 -73 l-22 -19 38 6 c42 5 45 1 19 -23
-11 -9 -25 -29 -33 -46 -12 -25 -82 -72 -111 -74 -32 -3 29 144 64 155 17 5
20 12 15 45 -3 21 -2 37 2 34 10 -5 31 39 31 65 0 10 -4 22 -10 25 -5 3 -10
19 -10 35 0 15 -5 30 -11 32 -9 3 -9 17 1 56 7 29 10 64 7 78 -2 14 2 31 9 39
11 10 11 15 1 18 -7 3 -5 6 6 6 9 1 17 6 17 11 0 13 13 13 46 -2z"/>
<path d="M1502 1435 c3 -13 2 -23 -1 -20 -4 2 -22 -30 -40 -71 -18 -41 -36
-74 -40 -74 -3 1 -28 30 -55 65 -51 68 -53 70 -75 56 -14 -9 -13 -10 52 -86
18 -22 27 -44 27 -67 0 -60 61 -93 80 -43 19 51 53 120 60 125 12 8 42 119 35
130 -3 5 -15 10 -27 10 -16 0 -19 -5 -16 -25z"/>
<path d="M988 979 c-44 -23 -47 -28 -15 -22 28 6 44 -12 49 -52 3 -28 6 -30
58 -36 30 -3 57 -2 58 3 2 4 22 8 44 8 32 0 39 3 34 16 -3 9 -6 22 -6 30 0 19
-55 46 -83 39 -15 -4 -32 1 -49 14 -32 26 -43 26 -90 0z"/>
<path d="M1290 554 c0 -8 -3 -13 -7 -11 -5 3 -9 -8 -10 -24 -1 -15 3 -31 8
-35 7 -4 9 0 5 12 -3 11 -2 25 3 32 12 19 23 -27 15 -65 -5 -26 -14 -31 -92
-55 -48 -15 -112 -33 -142 -39 -30 -6 -71 -18 -90 -27 -35 -16 -35 -16 117
-28 152 -12 178 -17 168 -35 -4 -5 -2 -9 4 -9 5 0 11 5 13 12 7 21 35 0 41
-31 4 -17 15 -34 24 -38 10 -4 24 -15 31 -25 7 -10 19 -18 26 -18 16 0 42
-120 27 -129 -6 -4 -7 -12 -1 -21 6 -8 10 -10 10 -5 0 6 4 4 8 -3 7 -9 45 -12
158 -10 l149 3 -46 23 c-44 22 -76 55 -142 144 -20 28 -34 38 -55 38 -39 0
-67 22 -58 46 4 10 4 15 0 12 -7 -8 -34 16 -34 30 0 6 6 13 13 15 7 4 6 6 -4
6 -16 1 -29 20 -29 41 0 5 12 10 26 12 26 3 26 4 -25 58 -28 30 -53 63 -57 73
-9 27 -54 70 -54 51z"/>
<path d="M685 380 c-3 -5 -14 -10 -24 -10 -18 0 -27 -4 -139 -65 -34 -19 -68
-32 -76 -29 -8 3 -16 -4 -19 -19 -4 -13 -19 -30 -34 -38 -16 -7 -49 -26 -74
-41 -25 -16 -53 -28 -61 -28 -17 0 -22 -46 -7 -56 5 -3 9 1 9 8 0 7 15 22 33
34 97 63 167 89 195 74 10 -5 25 -11 36 -14 17 -6 17 -7 -1 -24 -10 -9 -14
-14 -8 -11 17 10 45 19 45 14 0 -2 -32 -25 -71 -51 -42 -28 -66 -50 -58 -53
19 -6 38 -33 39 -53 0 -16 11 -18 103 -17 l102 0 -40 18 -39 17 84 55 c87 55
111 62 168 47 24 -6 32 -14 32 -31 0 -15 -3 -18 -9 -9 -6 10 -10 10 -20 -2 -9
-11 -9 -15 1 -20 7 -3 3 -4 -9 -2 -23 4 -88 -36 -76 -47 3 -4 -2 -7 -13 -7
-10 0 -25 -4 -33 -9 -8 -5 25 -9 86 -10 l100 -2 9 32 c11 37 28 48 38 24 4
-11 -2 -24 -16 -36 l-23 -18 49 -1 49 0 -27 32 c-14 18 -33 45 -41 60 -19 33
-100 140 -145 191 -27 30 -41 37 -71 37 -48 0 -69 22 -35 38 19 9 25 8 30 -4
3 -8 10 -14 16 -14 5 0 0 11 -12 25 -23 27 -33 31 -43 15z m80 -102 c3 -3 1
-28 -5 -55 -11 -48 -14 -52 -91 -102 -44 -28 -84 -51 -89 -51 -14 0 -13 87 1
96 8 4 7 9 -2 15 -18 11 -6 21 31 24 17 1 34 6 38 10 4 5 1 5 -5 1 -7 -4 -13
-2 -13 4 0 5 20 20 45 32 25 12 45 25 45 28 0 8 37 6 45 -2z"/>
<path d="M2903 308 c-83 -88 -241 -212 -301 -237 -18 -8 -32 -17 -32 -21 0 -4
-18 -12 -40 -19 -77 -23 -55 -31 84 -31 123 0 135 2 129 17 -6 16 -5 16 17 0
18 -12 45 -17 101 -17 l76 0 7 98 c12 196 13 230 6 241 -4 7 -21 -5 -47 -31z"/>
</g>
</svg>
